<svg version="1.1" xmlns="http://www.w3.org/2000/svg" xmlns:xlink="http://www.w3.org/1999/xlink" width="50.01258" height="50.01258" viewBox="0,0,50.01258,50.01258"><g transform="translate(-614.9937,-334.9937)"><g stroke="none" stroke-miterlimit="10"><path d="M615,360c0,-13.80712 11.19288,-25 25,-25c13.80712,0 25,11.19288 25,25c0,13.80712 -11.19288,25 -25,25c-13.80712,0 -25,-11.19288 -25,-25z" fill="#ffffff" stroke-width="0.5"/><path d="M664.11224,353.39699c3.64674,13.31683 -4.19241,27.06851 -17.50924,30.71525c-13.31683,3.64674 -27.06851,-4.19241 -30.71525,-17.50924c-3.64674,-13.31683 4.19241,-27.06851 17.50924,-30.71525c13.31683,-3.64674 27.06851,4.19241 30.71525,17.50924z" fill-opacity="0.09804" fill="#00ffff" stroke-width="0.5"/><path d="M644.9591,341.43081c0.95727,3.49567 -1.10051,7.10548 -4.59618,8.06275c-3.49567,0.95727 -7.10548,-1.10051 -8.06275,-4.59618c-0.95727,-3.49567 1.10051,-7.10548 4.59618,-8.06275c3.49567,-0.95727 7.10548,1.10051 8.06275,4.59618z" fill-opacity="0.09804" fill="#00ffff" stroke-width="0"/><path d="M660.6528,357.09191c1.57721,5.75953 -1.81322,11.70713 -7.57275,13.28435c-5.75953,1.57721 -11.70713,-1.81322 -13.28435,-7.57275c-1.57721,-5.75953 1.81322,-11.70713 7.57275,-13.28435c5.75953,-1.57721 11.70713,1.81322 13.28435,7.57275z" fill-opacity="0.09804" fill="#00ffff" stroke-width="0"/><path d="M634.42294,367.32047c1.09402,3.99505 -1.25772,8.12055 -5.25277,9.21457c-3.99505,1.09402 -8.12055,-1.25772 -9.21457,-5.25277c-1.09402,-3.99505 1.25772,-8.12055 5.25277,-9.21457c3.99505,-1.09402 8.12055,1.25772 9.21457,5.25277z" fill-opacity="0.09804" fill="#00ffff" stroke-width="0"/><path d="M649.6485,375.59284c0.58348,2.13069 -0.67079,4.33096 -2.80148,4.91444c-2.13069,0.58348 -4.33096,-0.67079 -4.91444,-2.80148c-0.58348,-2.13069 0.67079,-4.33096 2.80148,-4.91444c2.13069,-0.58348 4.33096,0.67079 4.91444,2.80148z" fill-opacity="0.09804" fill="#00ffff" stroke-width="0"/><path d="M626.98285,355.29605c0.19145,0.69913 -0.2201,1.4211 -0.91924,1.61255c-0.69913,0.19145 -1.4211,-0.2201 -1.61255,-0.91924c-0.19145,-0.69913 0.2201,-1.4211 0.91924,-1.61255c0.69913,-0.19145 1.4211,0.2201 1.61255,0.91924z" fill-opacity="0.09804" fill="#00ffff" stroke-width="0"/><path d="M615,360c0,-13.80712 11.19288,-25 25,-25c13.80712,0 25,11.19288 25,25c0,13.80712 -11.19288,25 -25,25c-13.80712,0 -25,-11.19288 -25,-25z" fill-opacity="0.4902" fill="#616161" stroke-width="0.5"/><path d="M616.8375,363.125c0,-3.62437 2.93813,-6.5625 6.5625,-6.5625c3.62437,0 6.5625,2.93813 6.5625,6.5625c0,3.62437 -2.93813,6.5625 -6.5625,6.5625c-3.62437,0 -6.5625,-2.93813 -6.5625,-6.5625z" fill-opacity="0.58824" fill="#3d3d3d" stroke-width="0"/><path d="M631.8375,369.875c0,-5.97158 4.84092,-10.8125 10.8125,-10.8125c5.97158,0 10.8125,4.84092 10.8125,10.8125c0,5.97158 -4.84092,10.8125 -10.8125,10.8125c-5.97158,0 -10.8125,-4.84092 -10.8125,-10.8125z" fill-opacity="0.58824" fill="#969696" stroke-width="0"/><path d="M638.0875,345.1875c0,-4.14214 3.35786,-7.5 7.5,-7.5c4.14214,0 7.5,3.35786 7.5,7.5c0,4.14214 -3.35786,7.5 -7.5,7.5c-4.14214,0 -7.5,-3.35786 -7.5,-7.5z" fill-opacity="0.53725" fill="#212121" stroke-width="0"/><path d="M653.5875,361.1875c0,-2.20914 1.79086,-4 4,-4c2.20914,0 4,1.79086 4,4c0,2.20914 -1.79086,4 -4,4c-2.20914,0 -4,-1.79086 -4,-4z" fill-opacity="0.52157" fill="#bfbfbf" stroke-width="0"/><path d="M630.7125,347.375c0,-0.72487 0.58763,-1.3125 1.3125,-1.3125c0.72487,0 1.3125,0.58763 1.3125,1.3125c0,0.72487 -0.58763,1.3125 -1.3125,1.3125c-0.72487,0 -1.3125,-0.58763 -1.3125,-1.3125z" fill-opacity="0.61961" fill="#c4c4c4" stroke-width="0"/></g></g></svg>